<svg xmlns="http://www.w3.org/2000/svg" viewBox="0 0 200 60">
  <!-- BMW Roundel-inspired -->
  <circle cx="100" cy="30" r="26" fill="none" stroke="#FFFFFF" stroke-width="3"/>
  <circle cx="100" cy="30" r="22" fill="none" stroke="#FFFFFF" stroke-width="1"/>
  <line x1="100" y1="8" x2="100" y2="52" stroke="#FFFFFF" stroke-width="1"/>
  <line x1="78" y1="30" x2="122" y2="30" stroke="#FFFFFF" stroke-width="1"/>
  <path d="M100 8 A22 22 0 0 1 122 30 L100 30 Z" fill="#1C69D4"/>
  <path d="M78 30 A22 22 0 0 1 100 8 L100 30 Z" fill="#FFFFFF"/>
  <path d="M100 52 A22 22 0 0 1 78 30 L100 30 Z" fill="#1C69D4"/>
  <path d="M122 30 A22 22 0 0 1 100 52 L100 30 Z" fill="#FFFFFF"/>
  <text x="100" y="27" text-anchor="middle" font-family="Arial Black, sans-serif" font-weight="900" font-size="11" fill="#FFFFFF">B M W</text>
</svg>
